<svg xmlns="http://www.w3.org/2000/svg" viewBox="0 0 32 32" role="img" aria-label="maximo-kit">
  <defs>
    <linearGradient id="fbg" x1="0" y1="0" x2="1" y2="1">
      <stop offset="0" stop-color="#22d3ee"/>
      <stop offset=".5" stop-color="#6366f1"/>
      <stop offset="1" stop-color="#a855f7"/>
    </linearGradient>
    <mask id="fhole">
      <rect width="32" height="32" fill="#fff"/>
      <circle cx="16" cy="16" r="4.4" fill="#000"/>
    </mask>
  </defs>
  <rect width="32" height="32" rx="8" fill="url(#fbg)"/>
  <g fill="#f8fafc" mask="url(#fhole)">
    <circle cx="16" cy="16" r="6.8"/>
    <rect x="14.4" y="5.6" width="3.2" height="4" rx="1.1"/>
    <rect x="14.4" y="5.6" width="3.2" height="4" rx="1.1" transform="rotate(45 16 16)"/>
    <rect x="14.4" y="5.6" width="3.2" height="4" rx="1.1" transform="rotate(90 16 16)"/>
    <rect x="14.4" y="5.6" width="3.2" height="4" rx="1.1" transform="rotate(135 16 16)"/>
    <rect x="14.4" y="5.6" width="3.2" height="4" rx="1.1" transform="rotate(180 16 16)"/>
    <rect x="14.4" y="5.6" width="3.2" height="4" rx="1.1" transform="rotate(225 16 16)"/>
    <rect x="14.4" y="5.6" width="3.2" height="4" rx="1.1" transform="rotate(270 16 16)"/>
    <rect x="14.4" y="5.6" width="3.2" height="4" rx="1.1" transform="rotate(315 16 16)"/>
  </g>
  <path d="M16 11.5 L17.4 14.6 L20.5 16 L17.4 17.4 L16 20.5 L14.6 17.4 L11.5 16 L14.6 14.6 Z" fill="#fff"/>
</svg>
